<svg id="Capa_1" data-name="Capa 1" xmlns="http://www.w3.org/2000/svg" viewBox="0 0 377.26 475.03"><defs><style>.cls-1{fill:#ffb8ab;}.cls-1,.cls-2,.cls-3,.cls-4,.cls-5{stroke:#4d4d4d;stroke-miterlimit:22.93;stroke-width:1.92px;fill-rule:evenodd;}.cls-2{fill:#4d4d4d;}.cls-3{fill:#faf9ce;}.cls-4{fill:#ffd0b2;}.cls-5{fill:#fff;}</style></defs><title>chancho B</title><path class="cls-1" d="M573,341c31.25-11.66,45.71-42.91,28-74.17-26.13-45.72-64.85-72.31-131.09-65.31C426,219.29,573,341,573,341Z" transform="translate(-232.31 -60.12)"/><path class="cls-1" d="M268.94,341c-31.25-11.66-45.71-42.91-28-74.17,26.13-45.72,64.85-72.31,131.09-65.31C415.9,219.29,268.94,341,268.94,341Z" transform="translate(-232.31 -60.12)"/><path class="cls-1" d="M420.57,534.19c-122.23,0-196.85-78.1-149.29-160.49-25.93-213.71,325.2-213.15,299.33,0C618.17,456.09,542.8,534.19,420.57,534.19Z" transform="translate(-232.31 -60.12)"/><path class="cls-2" d="M342.19,368.35A19.36,19.36,0,1,0,322.83,349,19.4,19.4,0,0,0,342.19,368.35Z" transform="translate(-232.31 -60.12)"/><path class="cls-3" d="M293.49,420.38c10,0,18.16-4.24,18.16-9.45s-8.16-9.45-18.16-9.45-18.16,4.24-18.16,9.45S283.49,420.38,293.49,420.38Z" transform="translate(-232.31 -60.12)"/><path class="cls-4" d="M360.53,429.36c0,45.18,120.83,44.73,120.83,0C481.36,371.56,360.53,371.56,360.53,429.36Z" transform="translate(-232.31 -60.12)"/><path class="cls-2" d="M395.69,439.8c5.75,0,10.44-5.71,10.44-12.71s-4.69-12.71-10.44-12.71-10.44,5.71-10.44,12.71S389.94,439.8,395.69,439.8Z" transform="translate(-232.31 -60.12)"/><path class="cls-5" d="M501.24,219.92v22.31a45.72,45.72,0,0,1-45.59,45.59H386.1a45.72,45.72,0,0,1-45.59-45.59V219.92c-33.72-4.82-59.59-32.73-59.59-66.44,0-37.1,31.33-67.18,70-67.18a73.13,73.13,0,0,1,14.21,1.39,71.76,71.76,0,0,1,111.54,0,73.1,73.1,0,0,1,14.21-1.39c38.65,0,70,30.08,70,67.18C560.83,187.19,535,215.1,501.24,219.92Z" transform="translate(-232.31 -60.12)"/><path class="cls-2" d="M446.2,439.8c5.75,0,10.44-5.71,10.44-12.71s-4.69-12.71-10.44-12.71-10.44,5.71-10.44,12.71S440.45,439.8,446.2,439.8Z" transform="translate(-232.31 -60.12)"/><path class="cls-3" d="M548.4,420.38c10,0,18.16-4.24,18.16-9.45s-8.16-9.45-18.16-9.45-18.16,4.24-18.16,9.45S538.39,420.38,548.4,420.38Z" transform="translate(-232.31 -60.12)"/><path class="cls-2" d="M499.7,368.35A19.36,19.36,0,1,0,480.34,349,19.4,19.4,0,0,0,499.7,368.35Z" transform="translate(-232.31 -60.12)"/></svg>